<svg width="1600" height="1100" viewBox="0 0 1600 1100" fill="none" xmlns="http://www.w3.org/2000/svg">
  <rect width="1600" height="1100" fill="#080808"/>
  <circle cx="1180" cy="220" r="360" fill="url(#goldGlow)" opacity="0.55"/>
  <circle cx="180" cy="820" r="340" fill="url(#softGlow)" opacity="0.32"/>
  <path d="M950 120C1110 276 1124 514 985 682C846 850 590 907 379 816" stroke="url(#lineGold)" stroke-width="3" opacity="0.65"/>
  <path d="M1020 92C1214 274 1240 570 1063 771C886 972 579 1024 318 885" stroke="url(#lineGold)" stroke-width="1.5" opacity="0.36"/>
  <g opacity="0.75">
    <rect x="1055" y="280" width="154" height="510" rx="8" fill="#111111" stroke="#D5A646" stroke-opacity="0.35"/>
    <rect x="1230" y="210" width="210" height="580" rx="10" fill="#0E0E0E" stroke="#E9C684" stroke-opacity="0.28"/>
    <rect x="940" y="388" width="112" height="402" rx="8" fill="#151515" stroke="#D5A646" stroke-opacity="0.22"/>
    <path d="M1055 336H1209M1055 410H1209M1055 484H1209M1055 558H1209M1055 632H1209M1055 706H1209" stroke="#D5A646" stroke-opacity="0.18"/>
    <path d="M1230 284H1440M1230 364H1440M1230 444H1440M1230 524H1440M1230 604H1440M1230 684H1440" stroke="#E9C684" stroke-opacity="0.16"/>
  </g>
  <g filter="url(#blur)">
    <path d="M814 388L760 574H866L817 740L1014 486H892L945 388H814Z" fill="url(#goldSolid)" opacity="0.72"/>
  </g>
  <defs>
    <radialGradient id="goldGlow" cx="0" cy="0" r="1" gradientUnits="userSpaceOnUse" gradientTransform="translate(1180 220) rotate(90) scale(360)">
      <stop stop-color="#D5A646" stop-opacity="0.45"/>
      <stop offset="1" stop-color="#D5A646" stop-opacity="0"/>
    </radialGradient>
    <radialGradient id="softGlow" cx="0" cy="0" r="1" gradientUnits="userSpaceOnUse" gradientTransform="translate(180 820) rotate(90) scale(340)">
      <stop stop-color="#E9C684" stop-opacity="0.24"/>
      <stop offset="1" stop-color="#E9C684" stop-opacity="0"/>
    </radialGradient>
    <linearGradient id="lineGold" x1="324" y1="840" x2="1210" y2="144" gradientUnits="userSpaceOnUse">
      <stop stop-color="#D5A646" stop-opacity="0"/>
      <stop offset="0.5" stop-color="#E9C684"/>
      <stop offset="1" stop-color="#D5A646" stop-opacity="0.2"/>
    </linearGradient>
    <linearGradient id="goldSolid" x1="760" y1="388" x2="1014" y2="740" gradientUnits="userSpaceOnUse">
      <stop stop-color="#E9C684"/>
      <stop offset="0.52" stop-color="#D5A646"/>
      <stop offset="1" stop-color="#7A5520"/>
    </linearGradient>
    <filter id="blur" x="700" y="330" width="370" height="470" filterUnits="userSpaceOnUse">
      <feGaussianBlur stdDeviation="6"/>
    </filter>
  </defs>
</svg>
